<mxfile host="app.diagrams.net" agent="Mozilla/5.0 (Windows NT 10.0; Win64; x64) AppleWebKit/537.36 (KHTML, like Gecko) Chrome/138.0.0.0 Safari/537.36 Edg/138.0.0.0" version="27.1.4">
  <diagram id="R2lEEEUBdFMjLlhIrx00" name="Page-1">
    <mxGraphModel dx="1415" dy="782" grid="1" gridSize="10" guides="1" tooltips="1" connect="1" arrows="1" fold="1" page="1" pageScale="1" pageWidth="850" pageHeight="1100" math="0" shadow="0" extFonts="Permanent Marker^https://fonts.googleapis.com/css?family=Permanent+Marker">
      <root>
        <mxCell id="0" />
        <mxCell id="1" parent="0" />
        <mxCell id="cxc_ZjS4iRz06WdGmwPo-7" style="rounded=0;orthogonalLoop=1;jettySize=auto;html=1;exitX=0.25;exitY=0;exitDx=0;exitDy=0;entryX=1;entryY=1;entryDx=0;entryDy=0;endArrow=none;startFill=0;" edge="1" parent="1" source="cxc_ZjS4iRz06WdGmwPo-1" target="cxc_ZjS4iRz06WdGmwPo-2">
          <mxGeometry relative="1" as="geometry" />
        </mxCell>
        <mxCell id="cxc_ZjS4iRz06WdGmwPo-10" style="rounded=0;orthogonalLoop=1;jettySize=auto;html=1;exitX=0.25;exitY=1;exitDx=0;exitDy=0;endArrow=none;startFill=0;" edge="1" parent="1" source="cxc_ZjS4iRz06WdGmwPo-1" target="cxc_ZjS4iRz06WdGmwPo-4">
          <mxGeometry relative="1" as="geometry" />
        </mxCell>
        <mxCell id="cxc_ZjS4iRz06WdGmwPo-12" style="rounded=0;orthogonalLoop=1;jettySize=auto;html=1;exitX=0.5;exitY=1;exitDx=0;exitDy=0;entryX=0.5;entryY=0;entryDx=0;entryDy=0;endArrow=none;startFill=0;" edge="1" parent="1" source="cxc_ZjS4iRz06WdGmwPo-1" target="cxc_ZjS4iRz06WdGmwPo-5">
          <mxGeometry relative="1" as="geometry" />
        </mxCell>
        <mxCell id="cxc_ZjS4iRz06WdGmwPo-13" style="rounded=0;orthogonalLoop=1;jettySize=auto;html=1;exitX=1;exitY=1;exitDx=0;exitDy=0;entryX=0;entryY=0;entryDx=0;entryDy=0;endArrow=none;startFill=0;" edge="1" parent="1" source="cxc_ZjS4iRz06WdGmwPo-1" target="cxc_ZjS4iRz06WdGmwPo-11">
          <mxGeometry relative="1" as="geometry" />
        </mxCell>
        <mxCell id="cxc_ZjS4iRz06WdGmwPo-15" style="edgeStyle=orthogonalEdgeStyle;rounded=0;orthogonalLoop=1;jettySize=auto;html=1;exitX=1;exitY=0.5;exitDx=0;exitDy=0;entryX=0;entryY=0.5;entryDx=0;entryDy=0;" edge="1" parent="1" source="cxc_ZjS4iRz06WdGmwPo-1" target="cxc_ZjS4iRz06WdGmwPo-14">
          <mxGeometry relative="1" as="geometry" />
        </mxCell>
        <mxCell id="cxc_ZjS4iRz06WdGmwPo-41" style="rounded=0;orthogonalLoop=1;jettySize=auto;html=1;exitX=0.75;exitY=1;exitDx=0;exitDy=0;entryX=0.5;entryY=0;entryDx=0;entryDy=0;" edge="1" parent="1" source="cxc_ZjS4iRz06WdGmwPo-1" target="cxc_ZjS4iRz06WdGmwPo-40">
          <mxGeometry relative="1" as="geometry" />
        </mxCell>
        <mxCell id="cxc_ZjS4iRz06WdGmwPo-1" value="Citizen" style="rounded=0;whiteSpace=wrap;html=1;fillColor=none;" vertex="1" parent="1">
          <mxGeometry x="130" y="240" width="120" height="60" as="geometry" />
        </mxCell>
        <mxCell id="cxc_ZjS4iRz06WdGmwPo-2" value="Full Name" style="ellipse;whiteSpace=wrap;html=1;fillColor=none;" vertex="1" parent="1">
          <mxGeometry x="50" y="140" width="100" height="60" as="geometry" />
        </mxCell>
        <mxCell id="cxc_ZjS4iRz06WdGmwPo-3" value="Phone Number" style="ellipse;whiteSpace=wrap;html=1;fillColor=none;" vertex="1" parent="1">
          <mxGeometry x="200" y="140" width="100" height="60" as="geometry" />
        </mxCell>
        <mxCell id="cxc_ZjS4iRz06WdGmwPo-4" value="Password" style="ellipse;whiteSpace=wrap;html=1;fillColor=none;" vertex="1" parent="1">
          <mxGeometry x="10" y="311" width="100" height="60" as="geometry" />
        </mxCell>
        <mxCell id="cxc_ZjS4iRz06WdGmwPo-5" value="Local Government" style="ellipse;whiteSpace=wrap;html=1;fillColor=none;" vertex="1" parent="1">
          <mxGeometry x="80" y="360" width="100" height="60" as="geometry" />
        </mxCell>
        <mxCell id="cxc_ZjS4iRz06WdGmwPo-9" style="rounded=0;orthogonalLoop=1;jettySize=auto;html=1;exitX=0.75;exitY=0;exitDx=0;exitDy=0;entryX=0.266;entryY=0.89;entryDx=0;entryDy=0;entryPerimeter=0;endArrow=none;startFill=0;" edge="1" parent="1" source="cxc_ZjS4iRz06WdGmwPo-1" target="cxc_ZjS4iRz06WdGmwPo-3">
          <mxGeometry relative="1" as="geometry" />
        </mxCell>
        <mxCell id="cxc_ZjS4iRz06WdGmwPo-11" value="Location" style="ellipse;whiteSpace=wrap;html=1;fillColor=none;" vertex="1" parent="1">
          <mxGeometry x="270" y="342" width="100" height="60" as="geometry" />
        </mxCell>
        <mxCell id="cxc_ZjS4iRz06WdGmwPo-17" style="edgeStyle=orthogonalEdgeStyle;rounded=0;orthogonalLoop=1;jettySize=auto;html=1;exitX=1;exitY=0.5;exitDx=0;exitDy=0;entryX=0;entryY=0.5;entryDx=0;entryDy=0;" edge="1" parent="1" source="cxc_ZjS4iRz06WdGmwPo-14" target="cxc_ZjS4iRz06WdGmwPo-16">
          <mxGeometry relative="1" as="geometry" />
        </mxCell>
        <mxCell id="cxc_ZjS4iRz06WdGmwPo-14" value="Reports" style="rhombus;whiteSpace=wrap;html=1;fillColor=none;" vertex="1" parent="1">
          <mxGeometry x="409" y="231" width="80" height="80" as="geometry" />
        </mxCell>
        <mxCell id="cxc_ZjS4iRz06WdGmwPo-23" style="rounded=0;orthogonalLoop=1;jettySize=auto;html=1;exitX=0.25;exitY=0;exitDx=0;exitDy=0;entryX=0.5;entryY=1;entryDx=0;entryDy=0;endArrow=none;startFill=0;" edge="1" parent="1" source="cxc_ZjS4iRz06WdGmwPo-16" target="cxc_ZjS4iRz06WdGmwPo-18">
          <mxGeometry relative="1" as="geometry" />
        </mxCell>
        <mxCell id="cxc_ZjS4iRz06WdGmwPo-27" style="rounded=0;orthogonalLoop=1;jettySize=auto;html=1;exitX=0.5;exitY=1;exitDx=0;exitDy=0;entryX=0.5;entryY=0;entryDx=0;entryDy=0;endArrow=classic;startFill=0;endFill=1;" edge="1" parent="1" source="cxc_ZjS4iRz06WdGmwPo-16" target="cxc_ZjS4iRz06WdGmwPo-26">
          <mxGeometry relative="1" as="geometry" />
        </mxCell>
        <mxCell id="cxc_ZjS4iRz06WdGmwPo-31" style="rounded=0;orthogonalLoop=1;jettySize=auto;html=1;exitX=0.5;exitY=0;exitDx=0;exitDy=0;entryX=0.5;entryY=1;entryDx=0;entryDy=0;endArrow=none;startFill=0;" edge="1" parent="1" source="cxc_ZjS4iRz06WdGmwPo-16" target="cxc_ZjS4iRz06WdGmwPo-30">
          <mxGeometry relative="1" as="geometry" />
        </mxCell>
        <mxCell id="cxc_ZjS4iRz06WdGmwPo-33" style="rounded=0;orthogonalLoop=1;jettySize=auto;html=1;exitX=1;exitY=0.5;exitDx=0;exitDy=0;endArrow=none;startFill=0;" edge="1" parent="1" source="cxc_ZjS4iRz06WdGmwPo-16" target="cxc_ZjS4iRz06WdGmwPo-32">
          <mxGeometry relative="1" as="geometry" />
        </mxCell>
        <mxCell id="cxc_ZjS4iRz06WdGmwPo-16" value="Admin" style="rounded=0;whiteSpace=wrap;html=1;fillColor=none;" vertex="1" parent="1">
          <mxGeometry x="620" y="240" width="120" height="60" as="geometry" />
        </mxCell>
        <mxCell id="cxc_ZjS4iRz06WdGmwPo-18" value="Filters Reports" style="ellipse;whiteSpace=wrap;html=1;fillColor=none;" vertex="1" parent="1">
          <mxGeometry x="581" y="136" width="100" height="60" as="geometry" />
        </mxCell>
        <mxCell id="cxc_ZjS4iRz06WdGmwPo-19" value="Manages Users" style="ellipse;whiteSpace=wrap;html=1;fillColor=none;" vertex="1" parent="1">
          <mxGeometry x="701" y="140" width="100" height="60" as="geometry" />
        </mxCell>
        <mxCell id="cxc_ZjS4iRz06WdGmwPo-20" value="Manage Dashboard" style="ellipse;whiteSpace=wrap;html=1;fillColor=none;" vertex="1" parent="1">
          <mxGeometry x="566" y="340" width="100" height="60" as="geometry" />
        </mxCell>
        <mxCell id="cxc_ZjS4iRz06WdGmwPo-25" style="rounded=0;orthogonalLoop=1;jettySize=auto;html=1;exitX=0;exitY=0;exitDx=0;exitDy=0;entryX=0.75;entryY=1;entryDx=0;entryDy=0;endArrow=none;startFill=0;" edge="1" parent="1" source="cxc_ZjS4iRz06WdGmwPo-21" target="cxc_ZjS4iRz06WdGmwPo-16">
          <mxGeometry relative="1" as="geometry" />
        </mxCell>
        <mxCell id="cxc_ZjS4iRz06WdGmwPo-21" value="Send Notifications" style="ellipse;whiteSpace=wrap;html=1;fillColor=none;" vertex="1" parent="1">
          <mxGeometry x="720" y="341" width="100" height="60" as="geometry" />
        </mxCell>
        <mxCell id="cxc_ZjS4iRz06WdGmwPo-22" style="rounded=0;orthogonalLoop=1;jettySize=auto;html=1;exitX=0.75;exitY=0;exitDx=0;exitDy=0;entryX=0.271;entryY=0.958;entryDx=0;entryDy=0;entryPerimeter=0;endArrow=none;startFill=0;" edge="1" parent="1" source="cxc_ZjS4iRz06WdGmwPo-16" target="cxc_ZjS4iRz06WdGmwPo-19">
          <mxGeometry relative="1" as="geometry" />
        </mxCell>
        <mxCell id="cxc_ZjS4iRz06WdGmwPo-24" style="rounded=0;orthogonalLoop=1;jettySize=auto;html=1;exitX=0.5;exitY=0;exitDx=0;exitDy=0;entryX=0.123;entryY=1.069;entryDx=0;entryDy=0;entryPerimeter=0;endArrow=none;startFill=0;" edge="1" parent="1" source="cxc_ZjS4iRz06WdGmwPo-20" target="cxc_ZjS4iRz06WdGmwPo-16">
          <mxGeometry relative="1" as="geometry" />
        </mxCell>
        <mxCell id="cxc_ZjS4iRz06WdGmwPo-29" style="rounded=0;orthogonalLoop=1;jettySize=auto;html=1;exitX=0.5;exitY=1;exitDx=0;exitDy=0;entryX=0.5;entryY=0;entryDx=0;entryDy=0;endArrow=classic;startFill=0;endFill=1;" edge="1" parent="1" source="cxc_ZjS4iRz06WdGmwPo-26" target="cxc_ZjS4iRz06WdGmwPo-28">
          <mxGeometry relative="1" as="geometry" />
        </mxCell>
        <mxCell id="cxc_ZjS4iRz06WdGmwPo-26" value="Updates" style="rhombus;whiteSpace=wrap;html=1;fillColor=none;" vertex="1" parent="1">
          <mxGeometry x="641" y="430" width="80" height="80" as="geometry" />
        </mxCell>
        <mxCell id="cxc_ZjS4iRz06WdGmwPo-35" style="rounded=0;orthogonalLoop=1;jettySize=auto;html=1;exitX=0;exitY=0.5;exitDx=0;exitDy=0;entryX=0.5;entryY=1;entryDx=0;entryDy=0;endArrow=none;endFill=1;startFill=0;" edge="1" parent="1" source="cxc_ZjS4iRz06WdGmwPo-28" target="cxc_ZjS4iRz06WdGmwPo-34">
          <mxGeometry relative="1" as="geometry" />
        </mxCell>
        <mxCell id="cxc_ZjS4iRz06WdGmwPo-37" style="rounded=0;orthogonalLoop=1;jettySize=auto;html=1;exitX=0.5;exitY=1;exitDx=0;exitDy=0;entryX=0.5;entryY=0;entryDx=0;entryDy=0;endArrow=none;startFill=0;" edge="1" parent="1" source="cxc_ZjS4iRz06WdGmwPo-28" target="cxc_ZjS4iRz06WdGmwPo-36">
          <mxGeometry relative="1" as="geometry" />
        </mxCell>
        <mxCell id="cxc_ZjS4iRz06WdGmwPo-39" style="rounded=0;orthogonalLoop=1;jettySize=auto;html=1;exitX=1;exitY=0.5;exitDx=0;exitDy=0;entryX=0;entryY=0.5;entryDx=0;entryDy=0;endArrow=none;startFill=0;" edge="1" parent="1" source="cxc_ZjS4iRz06WdGmwPo-28" target="cxc_ZjS4iRz06WdGmwPo-38">
          <mxGeometry relative="1" as="geometry" />
        </mxCell>
        <mxCell id="cxc_ZjS4iRz06WdGmwPo-50" style="rounded=0;orthogonalLoop=1;jettySize=auto;html=1;exitX=0;exitY=0.5;exitDx=0;exitDy=0;entryX=1;entryY=0.5;entryDx=0;entryDy=0;" edge="1" parent="1" source="cxc_ZjS4iRz06WdGmwPo-28" target="cxc_ZjS4iRz06WdGmwPo-49">
          <mxGeometry relative="1" as="geometry" />
        </mxCell>
        <mxCell id="cxc_ZjS4iRz06WdGmwPo-28" value="Database" style="rounded=0;whiteSpace=wrap;html=1;fillColor=none;" vertex="1" parent="1">
          <mxGeometry x="621" y="590" width="120" height="60" as="geometry" />
        </mxCell>
        <mxCell id="cxc_ZjS4iRz06WdGmwPo-30" value="Full Name" style="ellipse;whiteSpace=wrap;html=1;fillColor=none;" vertex="1" parent="1">
          <mxGeometry x="641" y="60" width="100" height="60" as="geometry" />
        </mxCell>
        <mxCell id="cxc_ZjS4iRz06WdGmwPo-32" value="Phone Number" style="ellipse;whiteSpace=wrap;html=1;fillColor=none;" vertex="1" parent="1">
          <mxGeometry x="790" y="230" width="100" height="60" as="geometry" />
        </mxCell>
        <mxCell id="cxc_ZjS4iRz06WdGmwPo-34" value="Report Data" style="ellipse;whiteSpace=wrap;html=1;fillColor=none;" vertex="1" parent="1">
          <mxGeometry x="489" y="500" width="100" height="60" as="geometry" />
        </mxCell>
        <mxCell id="cxc_ZjS4iRz06WdGmwPo-36" value="User Data" style="ellipse;whiteSpace=wrap;html=1;fillColor=none;" vertex="1" parent="1">
          <mxGeometry x="630" y="690" width="100" height="60" as="geometry" />
        </mxCell>
        <mxCell id="cxc_ZjS4iRz06WdGmwPo-38" value="Dashboard Data" style="ellipse;whiteSpace=wrap;html=1;fillColor=none;" vertex="1" parent="1">
          <mxGeometry x="793" y="580" width="100" height="60" as="geometry" />
        </mxCell>
        <mxCell id="cxc_ZjS4iRz06WdGmwPo-40" value="Uses" style="rhombus;whiteSpace=wrap;html=1;fillColor=none;" vertex="1" parent="1">
          <mxGeometry x="179" y="431" width="80" height="80" as="geometry" />
        </mxCell>
        <mxCell id="cxc_ZjS4iRz06WdGmwPo-45" style="rounded=0;orthogonalLoop=1;jettySize=auto;html=1;exitX=0;exitY=0.5;exitDx=0;exitDy=0;entryX=1;entryY=0.5;entryDx=0;entryDy=0;endArrow=none;startFill=0;" edge="1" parent="1" source="cxc_ZjS4iRz06WdGmwPo-42" target="cxc_ZjS4iRz06WdGmwPo-44">
          <mxGeometry relative="1" as="geometry" />
        </mxCell>
        <mxCell id="cxc_ZjS4iRz06WdGmwPo-47" style="rounded=0;orthogonalLoop=1;jettySize=auto;html=1;exitX=0.5;exitY=1;exitDx=0;exitDy=0;entryX=0.5;entryY=0;entryDx=0;entryDy=0;endArrow=none;startFill=0;" edge="1" parent="1" source="cxc_ZjS4iRz06WdGmwPo-42" target="cxc_ZjS4iRz06WdGmwPo-46">
          <mxGeometry relative="1" as="geometry" />
        </mxCell>
        <mxCell id="cxc_ZjS4iRz06WdGmwPo-42" value="Dashboard" style="rounded=0;whiteSpace=wrap;html=1;fillColor=none;" vertex="1" parent="1">
          <mxGeometry x="169" y="590" width="120" height="60" as="geometry" />
        </mxCell>
        <mxCell id="cxc_ZjS4iRz06WdGmwPo-43" style="rounded=0;orthogonalLoop=1;jettySize=auto;html=1;exitX=0.5;exitY=1;exitDx=0;exitDy=0;entryX=0.408;entryY=0.002;entryDx=0;entryDy=0;entryPerimeter=0;endArrow=none;startFill=0;" edge="1" parent="1" source="cxc_ZjS4iRz06WdGmwPo-40" target="cxc_ZjS4iRz06WdGmwPo-42">
          <mxGeometry relative="1" as="geometry" />
        </mxCell>
        <mxCell id="cxc_ZjS4iRz06WdGmwPo-44" value="Show Reports" style="ellipse;whiteSpace=wrap;html=1;fillColor=none;" vertex="1" parent="1">
          <mxGeometry y="593" width="100" height="60" as="geometry" />
        </mxCell>
        <mxCell id="cxc_ZjS4iRz06WdGmwPo-46" value="Sahayta Call" style="ellipse;whiteSpace=wrap;html=1;fillColor=none;" vertex="1" parent="1">
          <mxGeometry x="110" y="720" width="100" height="60" as="geometry" />
        </mxCell>
        <mxCell id="cxc_ZjS4iRz06WdGmwPo-51" style="edgeStyle=orthogonalEdgeStyle;rounded=0;orthogonalLoop=1;jettySize=auto;html=1;exitX=0;exitY=0.5;exitDx=0;exitDy=0;entryX=1;entryY=0.5;entryDx=0;entryDy=0;" edge="1" parent="1" source="cxc_ZjS4iRz06WdGmwPo-49" target="cxc_ZjS4iRz06WdGmwPo-42">
          <mxGeometry relative="1" as="geometry" />
        </mxCell>
        <mxCell id="cxc_ZjS4iRz06WdGmwPo-49" value="Sends Data&amp;nbsp;" style="rhombus;whiteSpace=wrap;html=1;fillColor=none;" vertex="1" parent="1">
          <mxGeometry x="400" y="580" width="80" height="80" as="geometry" />
        </mxCell>
        <mxCell id="cxc_ZjS4iRz06WdGmwPo-52" value="Notification" style="ellipse;whiteSpace=wrap;html=1;fillColor=none;" vertex="1" parent="1">
          <mxGeometry x="250" y="724" width="100" height="60" as="geometry" />
        </mxCell>
        <mxCell id="cxc_ZjS4iRz06WdGmwPo-53" style="rounded=0;orthogonalLoop=1;jettySize=auto;html=1;exitX=0.75;exitY=1;exitDx=0;exitDy=0;entryX=0.356;entryY=-0.064;entryDx=0;entryDy=0;entryPerimeter=0;endArrow=none;startFill=0;" edge="1" parent="1" source="cxc_ZjS4iRz06WdGmwPo-42" target="cxc_ZjS4iRz06WdGmwPo-52">
          <mxGeometry relative="1" as="geometry" />
        </mxCell>
      </root>
    </mxGraphModel>
  </diagram>
</mxfile>
